<svg version="1.1" xmlns="http://www.w3.org/2000/svg" xmlns:xlink="http://www.w3.org/1999/xlink" x="0px" y="0px" width="940px"
	 height="579.17px" viewBox="0 0 940 579.17" style="enable-background:new 0 0 940 579.17;" xml:space="preserve">
<style type="text/css">
	.st0{fill:#D89103;}
	.st1{fill:#67453B;}
	.st2{fill:#DEAA30;}
	.st3{fill:url(#SVGID_1_);}
	.st4{fill:url(#SVGID_2_);}
	.st5{fill:#CCB9B7;stroke:#000000;stroke-width:0.75;stroke-miterlimit:10;}
	.st6{fill:none;stroke:#000000;stroke-width:0.5;stroke-linecap:round;stroke-miterlimit:10;}
	.st7{fill:#2E895D;}
	.st8{fill:#CDB9B8;stroke:#000000;stroke-width:0.75;stroke-miterlimit:10;}
	.st9{fill:none;stroke:#000000;stroke-miterlimit:10;}
	.st10{fill:none;stroke:#000000;stroke-linecap:round;stroke-miterlimit:10;}
	.st11{fill:#FFFFFF;}
	.st12{fill:url(#SVGID_3_);}
	.st13{fill:url(#SVGID_4_);}
</style>
<defs>
</defs>
<g>
	<g>
		<path class="st0" d="M164.2,408.35c-45.18-28.85-69.6-62.77-70.65-98.11l488.32,102.9l6.56-4.1L133.42,230.65
			c27.57-25.13,68.72-47.18,119.06-63.79c116.88,76.5,353.7,235.55,356.08,237.15l0.13,0.08h11.02l-246.63-264
			c35.1-4.59,71.59-6.92,108.46-6.92c30.03,0,59.97,1.55,88.97,4.62c25.43,83.26,71.39,255.87,71.85,257.61l0.52,1.96l53.36-235.01
			c50.47,15.13,92.94,35.65,122.88,59.37L673.56,396.75l157.62-77.58c5.78,14.39,9.88,48.28-14.95,77.06
			c-2.01,1.54-4.15,3.12-6.36,4.69L722.6,415.7l3.49,8.08l-125.43,2.19L164.2,408.35z"/>
		<g>
			<path class="st1" d="M481.53,133.67c29.9,0,59.7,1.54,88.59,4.58c25.44,83.37,71.29,255.54,71.75,257.27l1.04,3.92l0.9-3.96
				l52.79-232.51c49.96,15.03,92.03,35.34,121.79,58.81L674.68,394.63l-3,3.61l4.21-2.07l155.03-76.3
				c1.69,4.4,5.31,16.13,3.73,32.31c-1.58,16.18-8.07,31.29-18.76,43.7c-1.97,1.51-4.06,3.05-6.21,4.58l-86.52,14.64l-1.26,0.21
				l0.5,1.17l2.94,6.81l-124.67,2.17l-436.3-17.61c-44.69-28.57-68.96-62.08-70.28-97l487.5,102.73l0.39,0.08l0.34-0.21l5.55-3.47
				l1.69-1.05l-1.85-0.73L134.35,230.48c27.48-24.82,68.24-46.61,118.06-63.07c116.95,76.56,353.49,235.41,355.87,237.01l0.25,0.17
				h0.3h9.71h2.3l-1.57-1.68L374.1,140.46C408.89,135.96,445.02,133.67,481.53,133.67 M481.53,132.67
				c-38.02,0-74.76,2.47-109.49,7.06l246.51,263.87h-9.71c0,0-238.12-159.94-356.28-237.28c-50.75,16.72-92.16,38.85-120.06,64.51
				l454.84,178.32l-5.55,3.47L93.04,309.62c0.81,36.93,26.97,71.13,71.01,99.22l436.6,17.62l126.19-2.2l-3.53-8.18l86.75-14.68
				c2.22-1.58,4.39-3.18,6.51-4.8c24.88-28.79,21.01-63.39,14.87-78.11l-155.99,76.78l144.38-173.63
				c-30.29-24.11-72.89-44.67-123.96-59.92l-53.03,233.55c0,0-46.25-173.83-71.95-257.94C542.2,134.28,512.28,132.67,481.53,132.67
				L481.53,132.67z"/>
		</g>
	</g>
	<g>
		<ellipse class="st1" cx="652.33" cy="437.25" rx="103.55" ry="44.42"/>
	</g>
	<g>
		<ellipse class="st2" cx="649.8" cy="436.39" rx="90.86" ry="37.64"/>
	</g>
	<g>
		
			<radialGradient id="SVGID_1_" cx="652.3312" cy="438.2665" r="44.3916" gradientTransform="matrix(1 0 0 0.7629 0 104.0485)" gradientUnits="userSpaceOnUse">
			<stop  offset="0.2412" style="stop-color:#F7DAA1"/>
			<stop  offset="0.4801" style="stop-color:#EDC672"/>
			<stop  offset="0.7034" style="stop-color:#E5B74E"/>
			<stop  offset="0.8842" style="stop-color:#E0AD38"/>
			<stop  offset="1" style="stop-color:#DEAA30"/>
		</radialGradient>
		<ellipse class="st3" cx="652.33" cy="438.39" rx="56.96" ry="33.56"/>
		<g>
			
				<radialGradient id="SVGID_2_" cx="652.3312" cy="438.3939" r="46.7484" gradientTransform="matrix(1 0 0 0.7 0 131.5182)" gradientUnits="userSpaceOnUse">
				<stop  offset="0.0628" style="stop-color:#F7DAA1"/>
				<stop  offset="0.4064" style="stop-color:#EDC673"/>
				<stop  offset="0.8026" style="stop-color:#E2B243"/>
				<stop  offset="1" style="stop-color:#DEAA30"/>
			</radialGradient>
			<path class="st4" d="M652.33,405.83c30.86,0,55.96,14.61,55.96,32.56s-25.1,32.56-55.96,32.56s-55.96-14.61-55.96-32.56
				S621.47,405.83,652.33,405.83 M652.33,404.83c-31.46,0-56.96,15.03-56.96,33.56c0,18.53,25.5,33.56,56.96,33.56
				s56.96-15.03,56.96-33.56C709.29,419.86,683.79,404.83,652.33,404.83L652.33,404.83z"/>
		</g>
	</g>
</g>
<g>
	<path class="st5" d="M349.69,213.42c-0.29,4.3-2.37,6.87-4.12,9.15c-5.02,4.86-11.42,3.76-17.5,4.06
		c-8.62,0.42-31.18,0.89-33.07,1.18c-8.81,12.04-24.66,7.05-40.89,5.6c-1.94-0.08-3.84-0.41-5.71-0.91
		c-11.75-4.4-23.99-3.65-36.17-3.42c-4.5-0.01-9-0.1-13.49-0.29c-9.19-1.81-18.46-3.15-27.66-4.93c-4.16-1.01-8.17-2.39-11.58-5.11
		c-10.66-8.88-24.76-10.22-36.6-16.59c-4.73-2.55-9.81-4.45-14.03-7.9c-14.73-12.86-28.8-26.36-39.74-42.75
		c-2.49-3.73-5.87-2.85-9.32-2.25c-14.94,2.62-28.3-0.81-40.03-10.52c-5.25-11.71-3.7-17.09,6.9-24.13
		c9.07-3.35,11.25-6.58,24.2-8.02c3.4-0.38,8.55-9.8,11.51-11.51c8.64-4.98,16.75-4.99,26.08-7.64c2.35-0.67,4.78-1,7.22-0.97
		c18.81,0.24,36.78,3.63,53.76,13.02c4.81,2.66,12.1,1.22,18.23,1c25.3-0.92,44.53,12.75,63.54,26.53
		c12.93,9.37,20.97,24.48,36.36,31.22c9.49,4.15,30.8,7.18,40.88,10.23c18.71,0,15.83,0,29.13,1.62
		c17.17,3.37,17.66,14.99,14.97,18.86C366.53,202.51,361.04,206.46,349.69,213.42z"/>
	<g>
		<g>
			<path d="M152.38,101.45c1.98,0.72,3.71,2.12,5.04,3.78c1.33,1.67,2.33,3.59,3.07,5.59c1.44,4.01,1.9,8.32,1.61,12.54
				c-0.3,4.22-1.34,8.4-3.12,12.22c-1.76,3.84-4.35,7.27-7.49,10l-0.18-0.18c2.71-3.11,4.86-6.62,6.36-10.39
				c1.48-3.77,2.38-7.75,2.64-11.77c0.24-4.02-0.11-8.09-1.26-11.94c-0.59-1.92-1.39-3.77-2.48-5.45c-1.05-1.71-2.52-3.14-4.29-4.18
				L152.38,101.45z"/>
		</g>
		<g>
			<path d="M151.39,153.16c2.74,0.06,5.49-0.16,8.2-0.54c2.72-0.36,5.4-0.96,8.04-1.69c5.29-1.43,10.4-3.49,15.31-5.87
				c2.46-1.19,4.86-2.5,7.22-3.88c2.36-1.36,4.67-2.82,6.89-4.4c2.22-1.58,4.39-3.22,6.43-5c1.01-0.9,2.01-1.81,2.9-2.82
				c0.89-1,1.74-2.07,2.14-3.34l0.25,0.04c-0.14,1.44-0.92,2.7-1.7,3.86c-0.81,1.16-1.77,2.18-2.74,3.18
				c-1.99,1.95-4.17,3.69-6.46,5.27c-4.56,3.15-9.43,5.83-14.49,8.06c-5.06,2.22-10.3,4.03-15.66,5.32
				c-5.36,1.3-10.84,2.05-16.35,2.07L151.39,153.16z"/>
		</g>
		<g>
			<path d="M153.25,153.58c3.97-0.68,7.94-1.27,11.92-1.84c3.97-0.62,7.96-1.1,11.92-1.7l11.92-1.69c3.98-0.52,7.96-1.08,11.96-1.53
				l0.04,0.25c-3.91,0.96-7.86,1.73-11.82,2.46c-3.96,0.69-7.93,1.33-11.92,1.84c-3.99,0.5-7.97,1.05-11.98,1.42
				c-4,0.41-8,0.77-12.02,1.05L153.25,153.58z"/>
		</g>
		<g>
			<path d="M161.77,167.41c3.15-0.99,6.41-1.63,9.65-2.24c3.25-0.57,6.51-1.07,9.7-1.78c3.2-0.68,6.35-1.54,9.31-2.84
				c1.48-0.64,2.91-1.39,4.27-2.25c1.32-0.86,2.71-1.86,4.11-2.74c2.82-1.78,5.78-3.33,8.86-4.61c3.06-1.3,6.22-2.37,9.43-3.21
				c6.41-1.71,13.02-2.6,19.62-2.68c-6.57,0.62-13.06,1.8-19.33,3.69c-6.25,1.94-12.32,4.49-17.81,8.02
				c-1.38,0.87-2.66,1.83-4.11,2.75c-1.43,0.9-2.94,1.67-4.48,2.33c-3.1,1.31-6.37,2.12-9.63,2.71c-3.27,0.57-6.56,0.93-9.82,1.36
				C168.26,166.3,165.01,166.76,161.77,167.41z"/>
		</g>
		<g>
			<path d="M100.67,164.39c2.77-1.76,5.69-3.29,8.72-4.6c3.04-1.29,6.18-2.32,9.39-3.09c3.22-0.73,6.48-1.25,9.77-1.48
				c3.28-0.24,6.58-0.25,9.86-0.05l-0.01,0.25c-3.27,0.08-6.54,0.23-9.78,0.58c-3.24,0.36-6.46,0.84-9.62,1.62
				c-3.17,0.74-6.27,1.72-9.3,2.91c-3.04,1.17-5.99,2.57-8.91,4.06L100.67,164.39z"/>
		</g>
		<g>
			<path d="M63.13,107.2c4.85,0.42,9.76,2.12,13.54,5.46c3.86,3.2,6.18,8.5,5.52,13.61c-0.25,2.54-1.07,4.99-2.21,7.21
				c-1.13,2.24-2.58,4.28-4.18,6.17c-3.25,3.74-7.09,6.85-11.18,9.5l-0.15-0.2c3.68-3.17,7.19-6.52,10.16-10.25
				c2.92-3.74,5.33-8,5.86-12.61c0.6-4.6-1.28-9.27-4.7-12.49c-1.68-1.65-3.71-2.93-5.86-3.95c-2.15-1.04-4.47-1.74-6.84-2.21
				L63.13,107.2z"/>
		</g>
		<g>
			<path d="M67.86,146.94c4.7-0.8,9.5-1.23,14.26-1.17c2.38,0.03,4.76,0.17,7.12,0.43c2.36,0.28,4.7,0.68,7.01,1.19
				c0.13,0.03,0.2,0.15,0.18,0.28c-0.03,0.12-0.14,0.19-0.26,0.18c-2.33-0.31-4.66-0.51-7-0.59c-2.34-0.06-4.67,0-7,0.17
				c-4.65,0.33-9.23,1.14-13.73,2.31c-0.76,0.2-1.54-0.26-1.74-1.03s0.26-1.54,1.03-1.74c0.04-0.01,0.08-0.02,0.11-0.02
				L67.86,146.94z"/>
		</g>
		<g>
			<path d="M69.56,148.21c1.85-0.91,3.97-1.03,5.9-0.68c1.96,0.26,3.88,0.62,5.79,1c3.82,0.77,7.61,1.63,11.39,2.49
				c0.1,0.02,0.17,0.13,0.14,0.23c-0.02,0.1-0.12,0.16-0.21,0.15c-3.84-0.57-7.68-1.21-11.51-1.75c-1.92-0.26-3.84-0.5-5.74-0.64
				c-1.93-0.01-3.73-0.35-5.71-0.55c-0.07,0-0.13-0.07-0.12-0.14C69.49,148.27,69.52,148.23,69.56,148.21z"/>
		</g>
		<g>
			<path d="M133.77,185.17c5.71-1.82,11.6-3.11,17.58-3.78c5.97-0.71,12.04-0.72,18.03-0.01c6,0.69,11.9,2.34,17.39,4.85l2.02,1.03
				c0.67,0.35,1.36,0.66,1.98,1.09c1.27,0.83,2.59,1.56,3.8,2.46c1.19,0.92,2.4,1.83,3.54,2.81c1.09,1.04,2.18,2.07,3.25,3.12
				l-0.18,0.18c-4.45-3.98-9.47-7.26-14.91-9.6c-5.4-2.42-11.2-3.83-17.07-4.63c-5.88-0.78-11.84-0.74-17.77-0.27
				c-5.93,0.52-11.81,1.56-17.61,3L133.77,185.17z"/>
		</g>
		<g>
			<g>
				<path d="M191.18,199.8c1.81,0,3.67,0.14,5.46-0.14c0.87-0.14,1.7-0.08,2.57-0.16c1.07-0.1,2.14-0.36,3.22-0.47
					c3.03-0.32,6.04-0.58,9.09-0.69c6.13-0.23,12.38,0.09,18.21,2.14c3.8,1.33,7.25,3.42,10.21,6.14c0.35,0.33,0.89-0.2,0.53-0.53
					c-4.96-4.57-11.17-7.13-17.8-8.06c-5.8-0.81-11.99-0.73-17.81-0.05c-2.24,0.26-4.59,0.8-6.83,0.78
					c-1.05-0.01-2.05,0.29-3.1,0.31c-1.25,0.02-2.49,0-3.74,0C190.7,199.05,190.7,199.8,191.18,199.8L191.18,199.8z"/>
			</g>
		</g>
		<g>
			<g>
				<path d="M231.79,208.03c4.21-1.13,8.72-1.1,13.04-0.91c5.59,0.25,11.17,0.98,16.67,1.99c5.49,1,10.95,2.28,16.29,3.94
					c4.27,1.33,8.62,2.84,12.47,5.16c1.33,0.8,2.75,1.74,3.63,3.04c1.33,1.98,0.3,4.73,0.54,6.95c0.05,0.47,0.8,0.48,0.75,0
					c-0.23-2.16,0.66-4.69-0.3-6.73c-0.53-1.13-1.52-2.01-2.5-2.75c-3.33-2.52-7.45-4.06-11.36-5.41
					c-10.88-3.77-22.53-6.05-34.02-6.82c-5.07-0.34-10.45-0.51-15.4,0.81C231.12,207.43,231.32,208.15,231.79,208.03L231.79,208.03z
					"/>
			</g>
		</g>
		<g>
			<g>
				<path d="M203.23,196.34c1.22-1.97,3.11-3.65,4.94-5.04c3.7-2.81,8.1-4.55,12.72-5.06c0.47-0.05,0.48-0.8,0-0.75
					c-4.76,0.52-9.28,2.28-13.1,5.16c-1.93,1.46-3.91,3.22-5.2,5.31C202.33,196.38,202.98,196.75,203.23,196.34L203.23,196.34z"/>
			</g>
		</g>
		<g>
			<g>
				<path d="M222.02,186.05c12.67-0.1,26.69,2.35,35.8,11.9c0.33,0.35,0.86-0.18,0.53-0.53c-7.74-8.12-19.15-11.22-30.03-11.95
					c-2.09-0.14-4.19-0.19-6.29-0.17C221.53,185.31,221.53,186.06,222.02,186.05L222.02,186.05z"/>
			</g>
		</g>
		<g>
			<path d="M243.11,203.26c0.95-0.98,2.08-1.79,3.33-2.36c1.24-0.58,2.54-0.99,3.85-1.35c2.62-0.72,5.29-1.21,7.96-1.66
				c0.23-0.04,0.45,0.12,0.49,0.35c0.04,0.23-0.12,0.45-0.35,0.49c-0.01,0-0.02,0-0.02,0c-2.67,0.33-5.34,0.69-7.96,1.27
				c-1.31,0.3-2.6,0.68-3.82,1.21c-1.23,0.52-2.34,1.28-3.3,2.21c-0.05,0.05-0.13,0.05-0.18,0
				C243.06,203.39,243.06,203.31,243.11,203.26z"/>
		</g>
		<g>
			<path d="M258.31,198.19c3.17-0.12,6.33-0.37,9.51-0.44c3.18-0.1,6.37-0.01,9.55,0.34c3.17,0.35,6.32,1.07,9.31,2.24
				c2.98,1.19,5.76,2.88,8.1,5.05l-0.16,0.19c-2.46-1.99-5.23-3.55-8.17-4.64c-2.93-1.13-6.04-1.75-9.16-2.15
				c-6.27-0.77-12.62-0.32-18.98-0.34L258.31,198.19z"/>
		</g>
		<g>
			<g>
				<path d="M349.8,213.62c-1.43-2.02-3.1-3.84-5.28-5.06c-2.38-1.33-5.08-1.99-7.71-2.63c-2.34-0.57-4.6-0.67-7.01-0.82
					c-8.74-0.55-17.5-1.04-26.26-1.14c-1.91-0.02-3.83-0.04-5.74,0.06c-0.96,0.05-2.1,0.02-2.99,0.44c-0.44,0.2-0.06,0.85,0.38,0.65
					c0.7-0.33,1.71-0.29,2.47-0.33c1.57-0.08,3.14-0.09,4.71-0.08c4.26,0.02,8.53,0.19,12.79,0.37c4.25,0.19,8.5,0.41,12.74,0.67
					c2.23,0.13,4.53,0.14,6.75,0.45c0.82,0.11,2.33,0.55,3.37,0.82c1.49,0.39,2.98,0.8,4.41,1.38c2.84,1.16,4.96,3.12,6.72,5.61
					C349.43,214.39,350.08,214.02,349.8,213.62L349.8,213.62z"/>
			</g>
		</g>
		<g>
			<path d="M283.37,211.94c0.4-1.05,0.91-2.08,1.64-2.98c0.71-0.89,1.64-1.63,2.66-2.14c2.06-1.04,4.36-1.35,6.59-1.61
				c0.16-0.02,0.31,0.1,0.33,0.26s-0.1,0.31-0.26,0.33c0,0,0,0-0.01,0l-0.01,0c-2.21,0.2-4.46,0.45-6.45,1.39
				c-0.99,0.47-1.88,1.14-2.59,1.98c-0.71,0.84-1.24,1.83-1.66,2.85c-0.03,0.06-0.1,0.09-0.16,0.07
				C283.38,212.07,283.35,212,283.37,211.94z"/>
		</g>
		<g>
			<path d="M224.42,183.18c0.27-0.76,0.91-1.26,1.53-1.69c0.64-0.42,1.31-0.77,2-1.09c1.38-0.63,2.8-1.15,4.24-1.6
				c1.45-0.42,2.9-0.83,4.39-1.11c0.74-0.15,1.48-0.27,2.23-0.38c0.38-0.05,0.75-0.1,1.14-0.11c0.19-0.01,0.39,0,0.58,0.01
				c0.2,0.04,0.38,0,0.64,0.22l-0.19,0.16c-0.05,0-0.29,0-0.45,0.02l-0.54,0.07l-1.1,0.16c-0.73,0.12-1.47,0.26-2.19,0.43
				c-1.45,0.34-2.91,0.67-4.34,1.09c-1.43,0.41-2.86,0.85-4.24,1.42c-0.69,0.29-1.36,0.6-1.99,0.99c-0.62,0.37-1.26,0.81-1.56,1.47
				L224.42,183.18z"/>
		</g>
		<g>
			<g>
				<path d="M241.46,177.58c2.34-0.48,4.82-0.28,7.17-0.04c3.24,0.34,6.45,0.95,9.63,1.66c6.18,1.39,12.38,3.14,18.24,5.57
					c1.63,0.68,4.11,1.47,5.23,2.93c0.29,0.38,0.94,0,0.65-0.38c-0.97-1.27-2.74-1.98-4.15-2.62c-2.64-1.2-5.39-2.17-8.15-3.06
					c-6.6-2.13-13.42-3.87-20.3-4.73c-2.78-0.35-5.73-0.64-8.51-0.07C240.79,176.95,240.99,177.68,241.46,177.58L241.46,177.58z"/>
			</g>
		</g>
		<g>
			<path d="M261.07,196.92c-0.04-0.24,0.06-0.35,0.12-0.47c0.07-0.12,0.14-0.23,0.22-0.33c0.16-0.21,0.33-0.41,0.51-0.6
				c0.35-0.38,0.73-0.74,1.1-1.09c0.76-0.69,1.57-1.34,2.4-1.96c1.66-1.23,3.44-2.3,5.31-3.17c1.89-0.84,3.87-1.54,5.94-1.81
				c2.06-0.31,4.21-0.14,6.15,0.63l-0.09,0.23c-1.93-0.61-3.99-0.67-5.98-0.32c-1.99,0.33-3.92,1-5.75,1.85
				c-1.84,0.85-3.61,1.86-5.29,3c-0.84,0.57-1.66,1.18-2.44,1.83c-0.39,0.33-0.77,0.66-1.13,1.02c-0.18,0.18-0.35,0.36-0.51,0.55
				c-0.16,0.17-0.32,0.45-0.33,0.54L261.07,196.92z"/>
		</g>
		<g>
			<g>
				<path d="M282.15,187.88c10.95-2.72,22.36-0.57,32.9,2.88c0.46,0.15,0.66-0.57,0.2-0.72c-10.67-3.49-22.21-5.63-33.3-2.88
					C281.48,187.27,281.68,188,282.15,187.88L282.15,187.88z"/>
			</g>
		</g>
		<g>
			<g>
				<path d="M315.15,190.77c4.66-0.09,9.34-0.62,13.98-0.97c4.92-0.36,9.86-0.8,14.79-0.8c3.71,0,8.57,0.11,11.25,3.09
					c0.32,0.36,0.85-0.17,0.53-0.53c-2.18-2.42-5.71-2.99-8.8-3.21c-3.7-0.26-7.41,0.07-11.1,0.25c-4.62,0.22-9.23,0.64-13.84,0.97
					c-2.26,0.16-4.54,0.4-6.81,0.44C314.67,190.03,314.67,190.78,315.15,190.77L315.15,190.77z"/>
			</g>
		</g>
		<g>
			<path d="M240.91,176.73c-0.11-0.86,0.12-1.7,0.43-2.47c0.31-0.78,0.77-1.49,1.3-2.14c1.05-1.3,2.51-2.29,4.11-2.7l0.09,0.23
				c-0.7,0.39-1.35,0.82-1.96,1.31c-0.59,0.5-1.12,1.07-1.6,1.68c-0.48,0.61-0.88,1.27-1.24,1.95c-0.35,0.69-0.7,1.39-0.88,2.14
				H240.91z"/>
		</g>
		<g>
			<path d="M251.71,170.25c0.02-0.71,0.38-1.3,0.75-1.84c0.38-0.53,0.82-1.01,1.28-1.47c0.93-0.91,1.98-1.68,3.07-2.37
				c2.19-1.39,4.6-2.4,7.1-3.08c2.49-0.71,5.08-1.05,7.67-1.05c2.58-0.01,5.16,0.37,7.63,1.05l-0.05,0.24
				c-2.52-0.36-5.05-0.56-7.57-0.48c-1.26,0.02-2.51,0.15-3.76,0.32c-1.25,0.16-2.48,0.41-3.7,0.73c-2.43,0.64-4.78,1.59-6.97,2.84
				c-1.09,0.63-2.12,1.36-3.08,2.17c-0.47,0.41-0.92,0.85-1.31,1.33c-0.38,0.48-0.75,1.02-0.81,1.6H251.71z"/>
		</g>
		<g>
			<g>
				<path d="M293.89,180.51c2.04-3.09,4.53-5.93,7.56-8.08c1.9-1.35,4.07-2.52,6.4-2.87c0.48-0.07,0.27-0.79-0.2-0.72
					c-2.44,0.37-4.75,1.62-6.73,3.05c-3.07,2.21-5.6,5.09-7.68,8.25C292.97,180.54,293.62,180.92,293.89,180.51L293.89,180.51z"/>
			</g>
		</g>
		<g>
			<path d="M302.07,200.47c0.12-0.82,0.49-1.47,0.86-2.13c0.37-0.66,0.79-1.29,1.25-1.89c0.92-1.19,1.96-2.31,3.16-3.25
				c1.19-0.95,2.52-1.76,4-2.21c1.47-0.45,3.1-0.49,4.55,0l-0.06,0.24c-1.48-0.11-2.9,0.03-4.27,0.47c-1.38,0.4-2.65,1.15-3.8,2.04
				c-1.15,0.9-2.22,1.91-3.16,3.04c-0.46,0.57-0.92,1.15-1.33,1.76c-0.41,0.6-0.81,1.27-0.96,1.92H302.07z"/>
		</g>
		<path class="st6" d="M77.74,138.4c0,0,7.13-2.38,14.26,0"/>
	</g>
</g>
<g>
	<path class="st7" d="M0,579.17h940v-41.04c-63.41-51.95-245.39-89.46-460-89.46c-246.13,0-449.35,49.35-480,113.22V579.17z"/>
</g>
<g>
	<path class="st8" d="M559.02,128.77c3.69,1.24,10.86,7.84,12.17,9.81c4.72,5.28,9.04,9.85,6.48,17.75
		c-2.66,8.2-8.45,12.63-16.24,11.66c-6.83-1.06-18.71-10.86-18.71-10.86s-3.02,10.26-7.84,12.07c-5.78,2.17-13.08,1.43-19.91-2.41
		c-3.46-2.19-7.09-4.3-10.71-6.11c-3,26.43-30.52,11.89-44.8,1.89c-6.03-3.02-17.96-14.44-17.96-14.44
		c0.75,0.66-3.72,12.15-12.21,12.03c-5.84-0.08-8.99-1.2-13.88-4.22c-0.75-0.46-51.33-35.81-53.39-36.52
		c-1.72-0.59-3.33-1.47-4.73-2.65c-19.16-16.11-28.72-37.53-28.45-64.28c0.14-14.1,8.22-26.31,20.3-31.39
		c9.39-3.95,19-4.41,29.11-5.57c6.9-0.79,12.81-1.85,13.03-2c10.9-7.97,28.17-14.5,40.27-12.91c13.95,0.61,27.93,0.61,41.91,0.42
		c3.55,0.06,5.32,0.42,10.06,2.34c1.5,0.61,2.69,1.81,4.23,2.32c4.45,1.46,7.69,2.06,11.7,2.41c18,1.54,36.07,1.97,54.13,0.98
		c0.33-0.02,0.65-0.02,0.98-0.02c10.78,0.16,21.56,0.2,32.33,0.55c4.07,0.13,7.95,0.8,11.37,2.58c6.56,3.4,9.72,11.25,7.19,18.19
		c-1.62,4.43-5.22,7.67-10.26,10.15c-8.58,4.2-17.46,6.32-26.85,6.32c-13.29,0-26.59-0.21-39.88,0.12
		c-6.91,0.17-14.06,1.78-16.86,9.24c-2.65,7.05-11.64,9.73-7.32,14.81c7.41,5.21,14.65,15.44,23.31,29.59
		c7.41,6.33,13.9,9.96,18.78,18.51C548.47,120.88,554.5,122.85,559.02,128.77"/>
	<g>
		<g>
			<path d="M355.94,86.46c4.97-1.82,10.16-2.95,15.38-3.75c1.31-0.17,2.62-0.38,3.94-0.51l3.96-0.35c2.65-0.11,5.29-0.25,7.95-0.15
				l1.99,0.03c0.66,0.03,1.32,0.09,1.98,0.13c1.32,0.1,2.65,0.18,3.97,0.31c2.63,0.39,5.28,0.62,7.87,1.23
				c1.3,0.27,2.61,0.51,3.91,0.81c1.28,0.35,2.58,0.66,3.88,0.97l1.95,0.46l1.91,0.6c1.27,0.41,2.55,0.83,3.8,1.28
				c0.65,0.22,1.22,0.46,1.81,0.69c0.59,0.23,1.19,0.43,1.79,0.64c1.2,0.4,2.42,0.76,3.66,1.07c2.45,0.64,5.07,0.99,7.69,1.26
				c2.62,0.26,5.26,0.27,7.89,0.17c2.63-0.07,5.26-0.26,7.89-0.46c10.5-0.92,20.92-2.82,31.08-5.65l0.04,0.16
				c-10.19,2.75-20.57,4.83-31.09,5.84c-2.63,0.23-5.26,0.45-7.9,0.54l-7.93,0.3l-3.99,0.18c-1.35,0.06-2.72,0.01-4.08-0.14
				c-2.71-0.27-5.41-1.13-7.86-2.18c-9.45-4.38-19.84-6.84-30.32-7.28c-2.62-0.18-5.25-0.12-7.87-0.1l-3.94,0.23
				c-1.31,0.09-2.62,0.26-3.93,0.39c-5.22,0.63-10.41,1.71-15.39,3.41L355.94,86.46z"/>
		</g>
		<g>
			<path d="M391.49,15.15c0.44,3.76,1.21,7.47,2.27,11.07c1.05,3.61,2.34,7.14,3.94,10.51c3.18,6.75,7.61,12.9,13.23,17.74
				c1.38,1.24,2.91,2.3,4.4,3.4c1.57,0.99,3.12,2.02,4.79,2.85c0.82,0.45,1.64,0.88,2.5,1.23l2.56,1.13
				c1.76,0.61,3.49,1.35,5.31,1.8c7.19,2.11,14.75,3.01,22.33,3.12l0.01,0.23c-7.58,0.56-15.3,0.11-22.77-1.77
				c-1.88-0.4-3.69-1.1-5.53-1.67c-0.9-0.35-1.79-0.72-2.68-1.09c-0.9-0.35-1.77-0.78-2.63-1.23c-1.75-0.82-3.39-1.86-5.05-2.86
				c-1.59-1.11-3.18-2.22-4.64-3.51c-5.93-5.01-10.58-11.49-13.6-18.58c-3-7.1-4.69-14.74-4.67-22.38L391.49,15.15z"/>
		</g>
		<g>
			<path d="M484.01,3.04c1.94,1.12,3.55,2.65,4.91,4.39c1.35,1.74,2.4,3.71,3.14,5.79c0.3,1.06,0.66,2.11,0.81,3.21
				c0.08,0.54,0.22,1.08,0.26,1.63l0.12,1.65c0.06,0.55,0.04,1.1,0.02,1.65l-0.05,1.65c-0.1,1.09-0.26,2.18-0.39,3.28
				c-0.03,0.27-0.28,0.47-0.55,0.44s-0.47-0.28-0.44-0.55c0,0,0,0,0-0.01l0.01-0.05c0.14-1.06,0.32-2.11,0.43-3.17l0.07-1.6
				c0.03-0.53,0.06-1.07,0.01-1.6l-0.09-1.6c-0.02-0.53-0.15-1.05-0.22-1.58c-0.12-1.06-0.46-2.08-0.72-3.11
				c-0.67-2.02-1.65-3.94-2.93-5.64c-1.27-1.7-2.84-3.23-4.64-4.32l-0.02-0.01c-0.12-0.07-0.16-0.24-0.09-0.36
				C483.73,3.01,483.89,2.97,484.01,3.04z"/>
		</g>
		<g>
			<path d="M553.28,11.11c-0.57,1.03-1.12,2.06-1.59,3.12c-0.51,1.05-0.98,2.11-1.4,3.19c-0.84,2.16-1.56,4.36-2.05,6.61
				c-0.47,2.26-0.68,4.55-0.62,6.85l0.15,1.72c0.02,0.58,0.22,1.13,0.32,1.7c0.14,1.16,0.66,2.21,0.97,3.35
				c-1.16-2.04-1.94-4.33-2.21-6.71c-0.24-2.38-0.06-4.78,0.41-7.12c0.53-2.32,1.3-4.58,2.33-6.71
				C550.61,15,551.8,12.94,553.28,11.11z"/>
		</g>
		<g>
			<path d="M418.12,76.77l19.01-0.41c6.33-0.17,12.67-0.39,18.99-0.71c6.33-0.31,12.65-0.64,18.96-1.21c3.15-0.27,6.3-0.6,9.43-1.07
				c1.56-0.23,3.12-0.5,4.66-0.86c0.77-0.18,1.53-0.38,2.27-0.65c0.73-0.27,1.47-0.58,2.04-1.09l0.16,0.16
				c-0.6,0.57-1.35,0.9-2.09,1.2c-0.75,0.3-1.51,0.52-2.28,0.73c-1.54,0.41-3.1,0.73-4.67,1c-3.13,0.53-6.29,0.9-9.44,1.23
				c-6.32,0.61-12.65,1.01-18.99,1.29c-6.34,0.26-12.68,0.43-19.01,0.54c-6.34,0.13-12.68,0.15-19.02,0.07V76.77z"/>
		</g>
		<g>
			<path d="M506.39,107.19c1.36-1.34,2.58-2.9,4.3-4.04c1.68-1.16,3.64-1.87,5.59-2.27c1.96-0.41,3.94-0.58,5.9-0.6
				c0.98-0.01,1.96,0.04,2.94,0.08c0.97,0.09,1.95,0.18,2.92,0.32c0.21,0.03,0.35,0.22,0.32,0.43c-0.03,0.17-0.17,0.3-0.33,0.32
				l-0.01,0c-0.97,0.11-1.93,0.15-2.89,0.21l-2.87,0.2c-1.9,0.15-3.79,0.35-5.63,0.67c-1.85,0.33-3.62,0.88-5.24,1.75
				c-1.63,0.84-3.07,2.17-4.76,3.21c-0.08,0.05-0.19,0.03-0.25-0.06C506.32,107.34,506.34,107.25,506.39,107.19z"/>
		</g>
		<g>
			<path d="M463.92,113.16c2.54-1.57,5.3-2.76,8.14-3.72c2.84-0.98,5.8-1.63,8.79-1.99c3-0.41,6.06-0.3,9.06,0.1
				c3.02,0.39,5.91,1.46,8.61,2.79c0.19,0.09,0.26,0.32,0.17,0.5c-0.08,0.16-0.27,0.24-0.44,0.2l-0.04-0.01
				c-0.71-0.2-1.41-0.41-2.11-0.64l-1.04-0.32l-1.07-0.22c-0.71-0.15-1.42-0.33-2.13-0.45l-2.16-0.29c-2.88-0.29-5.79-0.38-8.7-0.09
				c-2.9,0.26-5.79,0.78-8.65,1.45c-1.43,0.35-2.84,0.76-4.25,1.21C466.69,112.09,465.3,112.62,463.92,113.16z"/>
		</g>
		<g>
			<path d="M419.83,111.92c1.63-0.84,3.34-1.53,5.06-2.18c1.74-0.59,3.5-1.14,5.31-1.54c3.6-0.83,7.32-1.18,11.03-1.06
				c3.7,0.2,7.41,0.83,10.9,2.11c1.71,0.71,3.45,1.38,5.04,2.33c1.65,0.85,3.12,1.98,4.62,3.03c0.17,0.12,0.21,0.35,0.09,0.52
				c-0.11,0.16-0.33,0.21-0.5,0.11l-0.03-0.02c-3.1-1.85-6.32-3.45-9.71-4.55c-3.4-1.07-6.93-1.69-10.49-1.8
				c-3.56-0.19-7.13,0.15-10.65,0.81c-3.52,0.65-6.98,1.68-10.37,2.94c-0.19,0.07-0.41-0.03-0.48-0.22
				C419.59,112.2,419.67,112.01,419.83,111.92z"/>
		</g>
		<g>
			<path d="M391.48,114.1c1.76-0.82,3.63-1.34,5.52-1.74c1.89-0.37,3.81-0.62,5.75-0.69c1.93-0.08,3.88,0.03,5.81,0.34
				c0.97,0.14,1.92,0.38,2.86,0.66c0.47,0.16,0.94,0.3,1.4,0.48l0.68,0.3c0.23,0.09,0.45,0.21,0.57,0.51
				c0.1,0.26-0.03,0.55-0.28,0.65c-0.01,0-0.01,0-0.02,0.01l-0.04,0.01c-0.32,0.11-0.53,0.03-0.74-0.07l-0.63-0.29
				c-0.42-0.18-0.87-0.32-1.3-0.48c-0.88-0.28-1.78-0.53-2.7-0.68c-1.83-0.35-3.71-0.47-5.6-0.47c-1.88,0-3.77,0.17-5.64,0.46
				c-1.87,0.28-3.73,0.69-5.47,1.39l-0.01,0c-0.11,0.04-0.23-0.01-0.27-0.12C391.34,114.27,391.38,114.15,391.48,114.1z"/>
		</g>
		<g>
			<path d="M461.84,114.48c0.12,0.09,0.2,0.21,0.21,0.23l0.08,0.13l0.12,0.22l0.2,0.43c0.13,0.28,0.24,0.57,0.36,0.85
				c0.23,0.57,0.43,1.14,0.63,1.72c0.38,1.15,0.72,2.32,0.98,3.52c0.26,1.19,0.45,2.41,0.52,3.64c0.05,1.23-0.01,2.51-0.48,3.75
				l-0.25-0.63c2.85,1.41,5.61,2.96,8.26,4.73c1.32,0.89,2.6,1.85,3.79,2.95c0.59,0.55,1.15,1.14,1.65,1.81
				c0.49,0.67,0.93,1.43,1.07,2.36l-0.27-0.39c2.58,1.19,5.19,2.5,7.71,3.9c2.52,1.41,4.98,2.92,7.34,4.6
				c2.35,1.68,4.61,3.52,6.58,5.66c1.93,2.13,3.69,4.63,4.19,7.57c0.02,0.13-0.06,0.25-0.19,0.27c-0.13,0.02-0.25-0.07-0.27-0.19
				c-0.52-2.78-2.24-5.18-4.17-7.24c-1.96-2.07-4.21-3.84-6.55-5.47c-2.35-1.62-4.81-3.09-7.33-4.44c-2.53-1.36-5.08-2.59-7.74-3.77
				l-0.23-0.1l-0.05-0.29c-0.22-1.32-1.32-2.53-2.41-3.57c-1.13-1.04-2.38-1.97-3.67-2.85c-2.58-1.74-5.33-3.28-8.13-4.66
				l-0.42-0.21l0.17-0.43c0.39-1.01,0.46-2.19,0.41-3.34c-0.06-1.16-0.24-2.32-0.49-3.47c-0.25-1.15-0.58-2.29-0.95-3.41
				c-0.19-0.56-0.39-1.12-0.61-1.66c-0.11-0.27-0.22-0.55-0.34-0.81l-0.18-0.39l-0.09-0.18l-0.04-0.06
				c-0.03-0.05,0.01,0.02,0.07,0.05c-0.23-0.15-0.3-0.46-0.15-0.69C461.3,114.39,461.61,114.33,461.84,114.48z"/>
		</g>
		<path class="st9" d="M463.98,144.46c0,0,0.6-4.22,14.48-4.22"/>
		<path class="st9" d="M441.05,131.19c0.6-0.6,13.27-4.83,22.93-2.41"/>
		<path class="st9" d="M428.38,128.17c-10.26-5.67-16.29-3.02-21.12-0.6"/>
		<path class="st10" d="M413.9,114.29c6.03,1.81,12.67,10.26,14.48,13.88c1.47,1.13,14.21,11.31,13.12,19.95"/>
		<path class="st9" d="M498.37,110.67c2.21-0.45,14.02,14.15,12.67,18.1c0,0,7.24,3.02,8.45,7.84c3.29,1,18.03,4.29,23.32,20.47"/>
		<path class="st9" d="M485.7,131.19c0,0,11.46-6.03,25.34-2.41"/>
		<path class="st9" d="M501.99,140.84c0,0,10.86-4.83,17.5-4.22"/>
		<path class="st10" d="M523.99,122.12c0.56-0.69,15.28-6.59,22.41-2.69"/>
		<path class="st9" d="M536.99,132.4c1.34-1.3,15.45-8.63,21.96-3.99"/>
	</g>
</g>
<g>
	<g>
		<path class="st11" d="M128.17,573.2c-7.79-18.53-14.48-36.74-20.9-55.95c0.39,18.67,0.48,37.34,0.48,56.02
			c-6.64,0.01-10.02,0.01-17.23-0.02c0-22.42,0-44.84,0-67.25c10.01-2.42,19.91-5.36,29.8-8.2c5.2,16.38,10.15,32.87,15.81,49.1
			c4.66-18.49,9.33-36.99,14.08-55.45c11.36-1.18,22.72-2.41,34.08-3.67c0.39,28.48,1.1,56.93,1.1,85.41
			c-8.49,0.02-12.74,0.03-21.34,0.02c0-21.76-0.78-43.45-1.33-65.21c-6.01,22.3-12.49,43.79-21.15,65.16
			C136.1,573.17,133.45,573.18,128.17,573.2z"/>
		<path class="st11" d="M224.56,485c0,29.38,0,58.77,0,88.15c-8.58-0.02-12.8-0.02-21.23,0c0-29.05-0.28-58.1-0.42-87.15
			C211.61,485.31,215.95,485.06,224.56,485z"/>
		<path class="st11" d="M306.5,501.71c-7.33,2.27-10.99,3.29-18.31,5.9c-2.46-6.63-7.68-9.9-15.65-9.36
			c-8.51,0.57-12.76,3.76-12.76,9.17c0,2.16,0.8,3.86,2.39,5.13c1.59,1.27,5.19,2.08,10.79,2.68c9.36,1,16.23,2.74,20.57,4.8
			c4.35,2.05,8.01,5.71,10.99,10.7c2.98,4.99,4.47,10.46,4.47,15.37c0,7.69-3.25,14.34-9.59,19.96c-7.89,7-18.89,8.03-28.42,8.42
			c-9.03,0.37-17.43-1.99-24.05-5.96c-6.61-3.97-10.98-9.87-13.08-17.69c7.97-1.67,11.96-2.51,19.93-4.18
			c2.24,7.94,8.47,11.92,18.68,11.92c4.93,0,8.6-0.88,11.02-2.65c2.42-1.77,3.63-3.88,3.63-6.33c0-2.5-1.1-4.41-3.29-5.87
			c-2.2-1.46-6.43-2.9-12.71-4.17c-11.7-2.36-20.04-5.45-25.01-9.34c-4.98-3.89-7.46-9.17-7.46-17.07c0-7.99,2.97-15.8,8.91-21.72
			s14.02-8.77,24.18-9.14C285.7,481.74,301.71,486.99,306.5,501.71z"/>
		<path class="st11" d="M344.54,482.99c0,30.05,0,60.11,0,90.16c-8.59,0-12.89,0-21.48,0c0-30.05,0-60.11,0-90.16
			C331.65,482.99,335.95,482.99,344.54,482.99z"/>
		<path class="st11" d="M397.49,574.47c-10.86-0.01-21.84-4.11-28.73-12.92c-7.57-9.67-10.13-22.12-10.16-33.95
			c-0.02-11.66,2.58-24.06,10.29-33.45c7.18-8.73,18.43-12.47,29.33-12.48c11.02-0.01,22.28,4.13,29.03,13.32
			c6.98,9.52,9.77,21.36,9.79,32.84c0.02,11.81-2.47,24.26-10.09,33.9C419.88,570.7,408.49,574.47,397.49,574.47z M398.1,497.97
			c-15.51-0.08-16.93,18.79-16.93,29.95c0,11.2,1.31,30.34,16.93,30.26c15.41-0.08,16.4-19.44,16.4-30.18
			C414.49,517.28,413.45,498.05,398.1,497.97z M415.03,453.61c2.05,4.19,3.07,6.29,5.12,10.48c-9.88,3.89-19.75,7.78-29.63,11.67
			c-1.35-2.8-2.02-4.19-3.37-6.99C396.45,463.71,405.74,458.66,415.03,453.61z"/>
		<path class="st11" d="M521.82,482.99c0,30.05,0,60.11,0,90.16c-7.35,0-11.02,0-18.37,0c-12.85-20.56-24.07-41.44-35.97-62.52
			c0.04,1.46,0.09,2.45,0.13,2.94c0.18,1.55,0.27,2.95,0.27,4.11c0,18.49,0,36.98,0,55.48c-6.71,0-10.06,0-16.77,0
			c0-30.05,0-60.11,0-90.16c9.28,0,13.92,0,23.2,0c11.15,17.91,21.8,35.55,31.27,54.43c-0.27-2.98-0.4-5.38-0.4-7
			c0-15.81,0-31.63,0-47.44C511.84,482.99,515.17,482.99,521.82,482.99z"/>
		<path class="st11" d="M640.39,499.21c-14.59,0-29.18,0-43.77,0c0,6.99,0,9.84,0,17.89c11.47,0,22.94,0,34.41,0
			c0,7.38,0,12.01,0,19.73c-11.47,0-22.94,0-34.41,0c0,8.95,0,12.04,0,19.48c14.59,0,29.18,0,43.77,0c0,6.74,0,10.11,0,16.85
			c-21.88,0-43.76,0-65.65,0c0-30.05,0-60.11,0-90.16c21.88,0,43.76,0,65.65,0C640.39,489.48,640.39,492.73,640.39,499.21z"/>
		<path class="st11" d="M675.13,556.31c12.19,0,24.37,0,36.56,0c0,6.74,0,10.11,0,16.85c-19.46,0-38.92,0-58.37,0
			c0-30.06,0-60.11,0-90.17c8.75-0.06,13.19-0.21,22.09-0.55C675.28,507.06,675.13,531.68,675.13,556.31z"/>
		<path class="st11" d="M746.77,481.73c-0.78,30.48-1.1,60.93-1.1,91.42c-9.55,0-14.27-0.01-22.94,0c0-30.75,0.05-61.43,1-92.16
			C732.41,481.03,737.17,481.18,746.77,481.73z"/>
		<path class="st11" d="M808.36,573.15c-6.67-23.07-14.44-45.82-21.06-68.92c-0.15,22.99-1.03,45.94-1.03,68.94
			c-7.72,0-11.77,0-19.88-0.01c0-29.93,0.7-59.84,1.2-89.76c11.85,1.21,23.65,2.9,35.31,5.35c4.51,17.81,8.83,35.64,12.56,53.63
			c5.45-15.85,8.34-31.6,11.3-48.05c8.7,2.26,12.53,3.38,26.14,6.66c0.79,24.1,1,48.1,1,72.21c-8.67,0.03-11.99,0.02-18.32,0.01
			c0-19.62,0.38-39.24-0.22-58.85c-3.74,19.98-10.63,39.15-15.83,58.8C815.38,573.15,813.26,573.15,808.36,573.15z"/>
	</g>
</g>
</svg>
